<?xml version="1.0" encoding="UTF-8"?>
<svg version="1.1" xmlns="http://www.w3.org/2000/svg" width="360" height="360">
<path d="M0 0 C1.22396484 0.97646484 1.22396484 0.97646484 2.47265625 1.97265625 C18.02993868 14.52642111 31.78907621 27.67075597 42 45 C42.46277344 45.71414062 42.92554688 46.42828125 43.40234375 47.1640625 C64.91716166 80.89643628 73.59186095 122.56670801 67 162 C66.87641113 162.76393066 66.75282227 163.52786133 66.62548828 164.31494141 C63.44283817 183.46099295 57.25435679 200.96713877 48 218 C47.51877686 218.90806396 47.51877686 218.90806396 47.02783203 219.83447266 C39.36816122 234.25519368 29.39670418 246.39131424 18 258 C17.26040039 258.75579346 17.26040039 258.75579346 16.50585938 259.52685547 C-2.9795387 279.14632739 -28.43145873 293.17225657 -54.9375 300.75 C-55.90006714 301.02976685 -55.90006714 301.02976685 -56.88208008 301.31518555 C-71.36913013 305.21749788 -85.80703014 306.55527598 -100.75 306.4375 C-101.57561432 306.43445862 -102.40122864 306.43141724 -103.25186157 306.42828369 C-116.50404371 306.35636779 -129.15121248 305.47084821 -142 302 C-143.19665283 301.68651611 -143.19665283 301.68651611 -144.41748047 301.36669922 C-189.27730956 289.29496533 -226.65507452 259.2426036 -249.75 219.1875 C-261.26713858 198.48401085 -267.03148874 176.18995731 -270.59863281 152.95507812 C-270.81218644 151.00432644 -270.81218644 151.00432644 -272 150 C-273.8622986 100.04580717 -255.70093001 53.40753595 -222 17 C-209.48416485 4.31447264 -194.52817073 -6.11879236 -178.875 -14.5625 C-178.25995605 -14.89693115 -177.64491211 -15.2313623 -177.01123047 -15.57592773 C-173.6696964 -17.32878048 -170.68223393 -18.29187809 -167 -19 C-166.67 -19.66 -166.34 -20.32 -166 -21 C-163.17293182 -22.0571302 -160.38303035 -22.9962452 -157.5 -23.875 C-156.64212891 -24.13893555 -155.78425781 -24.40287109 -154.90039062 -24.67480469 C-104.09936337 -40.04239621 -42.25219391 -35.23287783 0 0 Z " fill="#000000" transform="translate(281,43)"/>
<path d="M0 0 C2.59614935 1.34962277 3.74665082 3.11690296 5.3762207 5.49731445 C8.86695185 10.75553255 8.86695185 10.75553255 14.22412109 13.72119141 C22.45315137 14.69192239 31.26932567 13.53810824 39.1640625 11.125 C40.05351563 10.89554688 40.94296875 10.66609375 41.859375 10.4296875 C47.45253834 8.98186593 52.77772879 7.20393582 58.1640625 5.125 C65.53380589 3.08021571 70.1614329 4.3688865 76.75390625 7.87890625 C85.90429244 12.60981904 94.87941313 11.49482024 104.5390625 9.25 C106.2028265 8.87886763 107.86688858 8.50906893 109.53125 8.140625 C110.32499023 7.96337891 111.11873047 7.78613281 111.93652344 7.60351562 C115.64598611 6.80665604 119.38440947 6.19842721 123.1328125 5.6171875 C125.45825231 5.17670963 125.45825231 5.17670963 128.1640625 3.125 C134.38261183 2.30085491 138.66908793 3.15771373 144.1640625 6.125 C159.63808507 11.56049527 173.03187971 9.36148735 188.16064453 4.71044922 C192.43193836 3.46226952 196.76089766 2.71788575 201.1640625 2.125 C202.68 1.8775 202.68 1.8775 204.2265625 1.625 C208.30162023 2.31862685 211.1299704 4.40380632 214.59765625 6.58984375 C221.73464398 10.8590008 229.91388518 12.84641104 238.1640625 11.125 C241.32559816 9.24255892 244.01572504 7.19163306 246.7890625 4.77734375 C249.1640625 3.125 249.1640625 3.125 251.359375 3.23828125 C254.05810171 4.564279 255.33689271 6.76042733 257.1640625 9.125 C262.60651602 14.44088483 268.56648171 17.11102176 276.2265625 17.5625 C281.77521841 16.94598268 285.88193165 14.87015889 290.2890625 11.5 C295.12492687 7.95369946 300.39317528 7.47344822 306.1640625 8.125 C308.3515625 10.625 308.3515625 10.625 310.1640625 13.125 C312.70773918 13.87521244 312.70773918 13.87521244 315.1640625 13.125 C316.81957568 11.14186316 316.81957568 11.14186316 318.1640625 9.125 C316.68377044 47.53857907 295.50782302 84.29628414 269.1640625 111.125 C268.4222876 111.88296875 268.4222876 111.88296875 267.66552734 112.65625 C248.18199698 132.27388529 222.72990179 146.29802903 196.2265625 153.875 C195.58485107 154.06151123 194.94313965 154.24802246 194.28198242 154.44018555 C179.79493237 158.34249788 165.35703236 159.68027598 150.4140625 159.5625 C149.58844818 159.55945862 148.76283386 159.55641724 147.91220093 159.55328369 C134.66001879 159.48136779 122.01285002 158.59584821 109.1640625 155.125 C108.36629395 154.91601074 107.56852539 154.70702148 106.74658203 154.49169922 C61.88675294 142.41996533 24.50898798 112.3676036 1.4140625 72.3125 C-9.41378978 52.84808872 -19.68443285 26.81108614 -18.8359375 4.125 C-17.8046875 4.021875 -16.7734375 3.91875 -15.7109375 3.8125 C-11.85899043 3.34476507 -11.85899043 3.34476507 -8.8984375 1.5 C-5.76863282 0.09478157 -3.42825941 -0.51359691 0 0 Z " fill="#FDB201" transform="translate(29.8359375,189.875)"/>
<path d="M0 0 C8.32895356 7.0013519 15.08697957 16.86483607 16.5859375 27.81640625 C16.83036511 33.71525924 16.24497478 39.43732722 12.203125 44.01953125 C6.98475319 47.53080779 2.20722867 47.4840359 -3.859375 47.39453125 C-4.82383545 47.38873047 -5.7882959 47.38292969 -6.78198242 47.37695312 C-13.49263196 47.25896368 -19.98671377 46.57375079 -26.609375 45.51953125 C-41.12846941 43.22196891 -54.14130587 43.95495766 -68.68017578 45.93847656 C-75.46204209 46.8274407 -82.14357076 47.34877761 -88.984375 47.39453125 C-90.21281128 47.41483398 -90.21281128 47.41483398 -91.46606445 47.43554688 C-96.09554642 47.40033797 -98.98277867 46.90548247 -102.796875 44.01953125 C-103.6321875 43.40078125 -103.6321875 43.40078125 -104.484375 42.76953125 C-108.04746243 38.01874801 -108.43974972 31.75355901 -107.796875 26.01953125 C-105.66389165 14.2105598 -98.38691051 4.95108086 -88.796875 -1.98046875 C-61.49507603 -19.37461372 -26.58441057 -18.82443598 0 0 Z " fill="#1A1624" transform="translate(225.796875,227.98046875)"/>
<path d="M0 0 C0.495 0.99 0.495 0.99 1 2 C-11 -1 -11 -1 -14.6875 -2.078125 C-33.3208355 -6.70086511 -54.26209926 -2.79789258 -70.58203125 6.80078125 C-80.26930032 12.84690832 -88.17475057 20.92412698 -91.375 32.125 C-92.78971572 40.89623745 -92.0119464 47.48208039 -87 55 C-91.75 54.25 -91.75 54.25 -94 52 C-94.25878906 50.06396484 -94.25878906 50.06396484 -94.265625 47.7109375 C-94.26820312 46.85113281 -94.27078125 45.99132812 -94.2734375 45.10546875 C-94.26570313 44.20441406 -94.25796875 43.30335938 -94.25 42.375 C-94.25773437 41.49714844 -94.26546875 40.61929688 -94.2734375 39.71484375 C-94.25687652 34.14207417 -93.57074633 29.34801727 -92 24 C-91.34 24 -90.68 24 -90 24 C-89.773125 23.0925 -89.54625 22.185 -89.3125 21.25 C-87.78965307 17.47914093 -86.19091659 16.41264425 -83 14 C-81.98343919 12.34338239 -80.97934924 10.67888441 -80 9 C-79.34 9 -78.68 9 -78 9 C-77.67 8.34 -77.34 7.68 -77 7 C-74.6859378 6.26924352 -72.35171131 5.59861742 -70 5 C-70 4.34 -70 3.68 -70 3 C-68.68 3 -67.36 3 -66 3 C-66 2.34 -66 1.68 -66 1 C-63.03 0.34 -60.06 -0.32 -57 -1 C-57 -1.66 -57 -2.32 -57 -3 C-41.70189342 -11.58186467 -15.37316456 -7.1695476 0 0 Z " fill="#DCB631" transform="translate(211,218)"/>
<path d="M0 0 C4.07505773 0.69362685 6.9034079 2.77880632 10.37109375 4.96484375 C17.50808148 9.2340008 25.68732268 11.22141104 33.9375 9.5 C37.09903566 7.61755892 39.78916254 5.56663306 42.5625 3.15234375 C44.9375 1.5 44.9375 1.5 47.140625 1.59375 C49.77949808 2.9246599 50.61903419 4.92899166 51.9375 7.5 C51.2775 7.5 50.6175 7.5 49.9375 7.5 C48.9475 6.015 48.9475 6.015 47.9375 4.5 C46.6175 4.5 45.2975 4.5 43.9375 4.5 C43.6075 5.49 43.2775 6.48 42.9375 7.5 C42.298125 7.62375 41.65875 7.7475 41 7.875 C40.319375 8.08125 39.63875 8.2875 38.9375 8.5 C38.6075 9.325 38.2775 10.15 37.9375 11 C36.9375 13.5 36.9375 13.5 35.25 14.375 C32.05701396 14.54759384 29.07929658 14.04377249 25.9375 13.5 C25.9375 12.84 25.9375 12.18 25.9375 11.5 C25.24785156 11.54640625 24.55820312 11.5928125 23.84765625 11.640625 C16.83541872 11.90995648 12.07395958 10.829485 5.9375 7.5 C5.21433594 7.16742188 4.49117187 6.83484375 3.74609375 6.4921875 C1.9375 5.5 1.9375 5.5 0.9375 3.5 C-6.44651081 3.82200949 -12.40209802 4.29788366 -19.0625 7.5 C-26.22430982 9.76517922 -33.36329299 9.80264457 -40.8125 9.75 C-41.92238281 9.75773438 -43.03226563 9.76546875 -44.17578125 9.7734375 C-45.24699219 9.77085937 -46.31820312 9.76828125 -47.421875 9.765625 C-48.38577148 9.76336914 -49.34966797 9.76111328 -50.34277344 9.75878906 C-53.24254135 9.4828686 -55.42545619 8.70759578 -58.0625 7.5 C-58.0625 6.84 -58.0625 6.18 -58.0625 5.5 C-54.59308454 5.95822468 -51.38854951 6.39131683 -48.0625 7.5 C-36.51308702 8.49933116 -27.02529778 6.45469277 -16.06591797 3.08544922 C-10.78874292 1.54332568 -5.40739568 0.88284011 0 0 Z " fill="#D2AB19" transform="translate(234.0625,191.5)"/>
<path d="M0 0 C12.08572497 5.2737709 19.96306397 13.95742657 25.375 25.875 C27.91197078 32.73974446 28.33751278 39.70364715 25.375 46.5 C23.49320239 50.2957627 20.91162045 51.5336911 17 53 C13.63692269 53.42948712 10.32402604 53.42503838 6.9375 53.375 C5.98536621 53.36919922 5.03323242 53.36339844 4.05224609 53.35742188 C-6.09863498 53.1771991 -16.010343 51.7160147 -26 50 C-26 49.67 -26 49.34 -26 49 C-23.04160645 48.97310551 -20.08345573 48.95321259 -17.125 48.9375 C-16.28324219 48.92912109 -15.44148437 48.92074219 -14.57421875 48.91210938 C-13.76855469 48.90888672 -12.96289062 48.90566406 -12.1328125 48.90234375 C-11.01737061 48.89448853 -11.01737061 48.89448853 -9.87939453 48.88647461 C-8 49 -8 49 -6 50 C-4.18828902 50.15306901 -2.3716206 50.24946661 -0.5546875 50.31640625 C0.52167969 50.35830078 1.59804687 50.40019531 2.70703125 50.44335938 C3.83496094 50.48267578 4.96289062 50.52199219 6.125 50.5625 C7.26066406 50.60568359 8.39632812 50.64886719 9.56640625 50.69335938 C12.37747768 50.7996604 15.18863945 50.90169405 18 51 C18.268125 50.195625 18.53625 49.39125 18.8125 48.5625 C19.204375 47.716875 19.59625 46.87125 20 46 C20.99 45.67 21.98 45.34 23 45 C25.15682787 38.52951638 24.75011465 31.23531444 22.05859375 24.9765625 C20.38941822 21.85994693 18.44161727 18.96320407 16.40234375 16.078125 C15 14 15 14 13.95703125 11.80078125 C12.55271635 9.15837648 10.78378922 8.94901905 8 8 C2.34315425 5.67071057 2.34315425 5.67071057 0.625 2.3125 C0.41875 1.549375 0.2125 0.78625 0 0 Z " fill="#382108" transform="translate(215,222)"/>
<path d="M0 0 C1 3 1 3 0.22265625 4.90234375 C-0.16019531 5.57394531 -0.54304687 6.24554688 -0.9375 6.9375 C-2.75807592 10.14047933 -3 11.07836033 -3 15 C-4.32 15 -5.64 15 -7 15 C-8.76865517 20.89551723 -9.16433787 28.20538081 -7.3515625 34.11328125 C-5.69981329 36.95796045 -3.8994945 38.04512492 -0.9375 39.375 C7.73529514 40.75163415 15.99453546 39.83287627 24.63208008 38.71630859 C30.77219468 37.95043297 36.81288376 37.78541793 43 38 C43 38.33 43 38.66 43 39 C31.30458226 40.70797918 19.64875963 42.29469368 7.8125 42.375 C6.99491211 42.38853516 6.17732422 42.40207031 5.33496094 42.41601562 C0.70371316 42.38085643 -2.1843796 41.88710441 -6 39 C-6.8353125 38.38125 -6.8353125 38.38125 -7.6875 37.75 C-11.25058743 32.99921676 -11.64287472 26.73402776 -11 21 C-9.55212485 12.98403669 -5.79871306 5.79871306 0 0 Z " fill="#3B1F03" transform="translate(129,233)"/>
<path d="M0 0 C0 0.33 0 0.66 0 1 C-1.5415636 1.02741912 -3.08327474 1.04658248 -4.625 1.0625 C-5.91277344 1.07990234 -5.91277344 1.07990234 -7.2265625 1.09765625 C-10 1 -10 1 -12.79003906 0.50439453 C-18.21340225 -0.34780111 -23.64569517 -0.18448608 -29.125 -0.1875 C-30.89423828 -0.20586914 -30.89423828 -0.20586914 -32.69921875 -0.22460938 C-33.83230469 -0.22654297 -34.96539062 -0.22847656 -36.1328125 -0.23046875 C-37.16293457 -0.23457764 -38.19305664 -0.23868652 -39.25439453 -0.24291992 C-42.0417437 0.00369331 -43.60165435 0.62871294 -46 2 C-53.9597177 3.51750014 -62.43167147 3.12858076 -70.5 3.1875 C-72.09473145 3.20707764 -72.09473145 3.20707764 -73.72167969 3.22705078 C-74.73133789 3.22817871 -75.74099609 3.22930664 -76.78125 3.23046875 C-77.68939453 3.23457764 -78.59753906 3.23868652 -79.53320312 3.24291992 C-82.13324089 2.98687899 -83.76467718 2.31621911 -86 1 C-85.67 0.34 -85.34 -0.32 -85 -1 C-84.01 -0.67 -83.02 -0.34 -82 0 C-71.14094814 0.57678314 -60.57673046 -0.01391914 -49.8125 -1.5 C-32.61059413 -3.83508804 -17.1028719 -2.84082455 0 0 Z " fill="#D7A12B" transform="translate(210,274)"/>
<path d="M0 0 C3.625 1.5 3.625 1.5 6 3 C3 4 3 4 0 3 C-1.66267874 2.85779721 -3.3315173 2.77979433 -5 2.75 C-5.86625 2.72421875 -6.7325 2.6984375 -7.625 2.671875 C-10.05432392 2.76004675 -10.05432392 2.76004675 -11.41015625 4.4453125 C-13.80364023 6.78586932 -16.16907883 6.71691109 -19.4375 7.125 C-23.03126746 7.59108588 -26.4994259 8.06397693 -30 9 C-39.46195842 10.60674766 -49.94694387 11.523728 -59 8 C-55.98968256 7.06576355 -55.13349732 6.95550089 -52 8 C-45.65515698 8.53715502 -39.78313024 7.55609702 -33.625 6.125 C-31.961236 5.75386763 -30.29717392 5.38406893 -28.6328125 5.015625 C-27.44220215 4.74975586 -27.44220215 4.74975586 -26.22753906 4.47851562 C-22.51807639 3.68165604 -18.77965303 3.07342721 -15.03125 2.4921875 C-3.29244558 -0.35221511 -3.29244558 -0.35221511 0 0 Z " fill="#DDB827" transform="translate(168,193)"/>
<path d="M0 0 C2.72718694 2.64926731 4.9820449 4.97344622 7.12890625 8.1484375 C8.69411203 10.03554025 9.55641601 10.88223828 11.9440918 11.51611328 C14.24074677 11.66475236 16.45207444 11.62521204 18.75 11.5 C19.55260254 11.47808594 20.35520508 11.45617187 21.18212891 11.43359375 C26.66324049 11.228734 31.70507815 10.4606681 37 9 C38.32 9 39.64 9 41 9 C41 9.66 41 10.32 41 11 C33.82081158 14.81394385 26.72483237 15.21394921 18.69921875 14.97265625 C16.23534475 14.9976159 14.35427862 15.35244789 12 16 C10 16 8 16 6 16 C5.896875 15.113125 5.79375 14.22625 5.6875 13.3125 C4.97664159 9.88745491 3.86918835 7.91593383 2 5 C1.30177383 3.34630643 0.62501395 1.68272986 0 0 Z " fill="#EABE1A" transform="translate(32,192)"/>
<path d="M0 0 C2.375 2 2.375 2 4 4 C3.42765625 3.83886719 2.8553125 3.67773438 2.265625 3.51171875 C-5.12381825 1.84272381 -12.50854255 3.15735079 -19.4375 6 C-27.39444317 9.10514855 -35.29207457 9.30977332 -43.75 9.25 C-44.85988281 9.25773438 -45.96976563 9.26546875 -47.11328125 9.2734375 C-48.18449219 9.27085937 -49.25570312 9.26828125 -50.359375 9.265625 C-51.32327148 9.26336914 -52.28716797 9.26111328 -53.28027344 9.25878906 C-56.18004135 8.9828686 -58.36295619 8.20759578 -61 7 C-61 6.34 -61 5.68 -61 5 C-57.53058454 5.45822468 -54.32604951 5.89131683 -51 7 C-39.45058702 7.99933116 -29.96279778 5.95469277 -19.00341797 2.58544922 C-13.13290518 0.86993744 -6.11077557 -0.89425984 0 0 Z " fill="#CAAE28" transform="translate(237,192)"/>
<path d="M0 0 C1.52101318 -0.00217529 1.52101318 -0.00217529 3.07275391 -0.00439453 C8.86878379 0.08074273 13.94219121 0.72089024 19.5 2.375 C19.5 2.705 19.5 3.035 19.5 3.375 C18.86199463 3.36976318 18.22398926 3.36452637 17.56665039 3.35913086 C-4.60820551 1.68628746 -4.60820551 1.68628746 -25.5 6.375 C-28.25 6.5 -28.25 6.5 -30.5 6.375 C-23.58908137 -0.53591863 -9.08312768 0.00139205 0 0 Z " fill="#39240A" transform="translate(180.5,213.625)"/>
<path d="M0 0 C1.37551025 0.05329468 1.37551025 0.05329468 2.77880859 0.10766602 C6.22656596 0.23796297 9.67443686 0.36206954 13.12255859 0.48217773 C14.60637104 0.53509062 16.09010126 0.59037037 17.57373047 0.64819336 C28.80559124 1.09307779 28.80559124 1.09307779 39.99414062 0.14257812 C43.30529533 -0.09278146 45.91340866 0.8593032 49 2 C49 2.33 49 2.66 49 3 C43.95037222 3.0499887 38.90089315 3.08599384 33.85107422 3.10986328 C32.13848354 3.11982955 30.42590946 3.13340747 28.71337891 3.15087891 C18.94015144 3.24798286 9.60025818 3.13419273 0 1 C0 0.67 0 0.34 0 0 Z " fill="#EA9B29" transform="translate(149,346)"/>
<path d="M0 0 C2.31 0.33 4.62 0.66 7 1 C0.9711066 7.0288934 -11.83541695 8.56345991 -20 10.3125 C-20.78818115 10.48378418 -21.5763623 10.65506836 -22.38842773 10.83154297 C-27.01976829 11.77679481 -31.2745438 12.16966399 -36 12 C-36 11.67 -36 11.34 -36 11 C-33.14656123 10.35080494 -30.29232245 9.70555821 -27.4375 9.0625 C-26.63763672 8.88009766 -25.83777344 8.69769531 -25.01367188 8.50976562 C-20.35366053 7.46364063 -15.73800166 6.60417471 -11 6 C-11 5.34 -11 4.68 -11 4 C-6.92630576 1.96315288 -4.41062136 1.9742741 0 3 C0 2.01 0 1.02 0 0 Z " fill="#ED9B29" transform="translate(235,336)"/>
<path d="M0 0 C5.30214425 -0.44184535 5.30214425 -0.44184535 8 0 C10.1875 2.5 10.1875 2.5 12 5 C14.54367668 5.75021244 14.54367668 5.75021244 17 5 C18.65551318 3.01686316 18.65551318 3.01686316 20 1 C19.7225537 8.19973161 18.6991576 15.06182429 17.0625 22.0625 C16.89266602 22.80040771 16.72283203 23.53831543 16.54785156 24.29858398 C15.72818578 27.67443605 14.94586238 30.08120643 13 33 C13.144375 32.01 13.28875 31.02 13.4375 30 C14.00925179 26.00590535 14.50819834 22.00467063 15 18 C15.66 18 16.32 18 17 18 C16.67 15.03 16.34 12.06 16 9 C14.02 9 12.04 9 10 9 C9.835 8.05125 9.67 7.1025 9.5 6.125 C8.37777898 2.91873588 8.37777898 2.91873588 6.0859375 2.15625 C4.07815136 1.67381375 2.03858716 1.32880438 0 1 C0 0.67 0 0.34 0 0 Z " fill="#EBBE25" transform="translate(328,198)"/>
<path d="M0 0 C-0.99 0.66 -1.98 1.32 -3 2 C-3 1.34 -3 0.68 -3 0 C-4.66475686 -0.34274406 -6.33195323 -0.67364302 -8 -1 C-9.485 -1.3403125 -9.485 -1.3403125 -11 -1.6875 C-14.44729415 -2.04659314 -15.89153614 -1.44050764 -19 0 C-24.80087395 2.04736728 -29.93299641 2.21973051 -36 2 C-32.91150304 0.37562542 -29.78082726 -0.87725609 -26.5 -2.0625 C-25.5615625 -2.40410156 -24.623125 -2.74570313 -23.65625 -3.09765625 C-14.32910932 -6.2661408 -8.46394612 -4.76842035 0 0 Z " fill="#DCB61E" transform="translate(109,199)"/>
<path d="M0 0 C0.99 0.33 1.98 0.66 3 1 C2.319375 1.99 2.319375 1.99 1.625 3 C-1.8517543 9.41862331 -3.37932887 17.04331497 -1.39453125 24.17578125 C-0.21065561 27.46298925 1.04798611 30.07197916 3 33 C-1.75 32.25 -1.75 32.25 -4 30 C-4.25878906 28.06396484 -4.25878906 28.06396484 -4.265625 25.7109375 C-4.26820312 24.85113281 -4.27078125 23.99132812 -4.2734375 23.10546875 C-4.26570313 22.20441406 -4.25796875 21.30335938 -4.25 20.375 C-4.25773437 19.49714844 -4.26546875 18.61929687 -4.2734375 17.71484375 C-4.25687652 12.14207417 -3.57074633 7.34801727 -2 2 C-1.34 2 -0.68 2 0 2 C0 1.34 0 0.68 0 0 Z " fill="#DDAA2A" transform="translate(121,240)"/>
<path d="M0 0 C7.81636537 1.91722169 7.81636537 1.91722169 10 5 C10 5.66 10 6.32 10 7 C11.918125 7.2784375 11.918125 7.2784375 13.875 7.5625 C14.59429687 7.66691406 15.31359375 7.77132812 16.0546875 7.87890625 C18.08140667 8.1684297 18.08140667 8.1684297 20 7 C19.4740625 8.051875 19.4740625 8.051875 18.9375 9.125 C17.8360807 12.50268586 18.20483859 14.58080593 19 18 C18.7525 17.360625 18.505 16.72125 18.25 16.0625 C17.8375 15.381875 17.425 14.70125 17 14 C16.38125 13.855625 15.7625 13.71125 15.125 13.5625 C13 13 13 13 11.3125 10.875 C8.5364727 7.42372281 5.36976481 5.08079325 1.828125 2.453125 C1.22484375 1.97359375 0.6215625 1.4940625 0 1 C0 0.67 0 0.34 0 0 Z " fill="#F1BA15" transform="translate(220,224)"/>
<path d="M0 0 C1 3 1 3 0.22265625 4.90234375 C-0.16019531 5.57394531 -0.54304687 6.24554688 -0.9375 6.9375 C-2.75807592 10.14047933 -3 11.07836033 -3 15 C-4.32 15 -5.64 15 -7 15 C-7.33 15.66 -7.66 16.32 -8 17 C-8.40167086 12.01197828 -7.55854809 9.66012715 -4.5625 5.6875 C-3.92441406 4.82511719 -3.28632812 3.96273437 -2.62890625 3.07421875 C-1 1 -1 1 0 0 Z " fill="#1F151D" transform="translate(129,233)"/>
<path d="M0 0 C-2.329591 2.329591 -2.84127608 2.2765734 -6 2.4140625 C-7.20112427 2.47219116 -7.20112427 2.47219116 -8.42651367 2.53149414 C-9.27576416 2.56235107 -10.12501465 2.59320801 -11 2.625 C-12.28644409 2.68192017 -12.28644409 2.68192017 -13.59887695 2.73999023 C-19.40267706 2.98247966 -25.19114031 3.09522721 -31 3 C-31 2.34 -31 1.68 -31 1 C-20.69339617 -0.32378398 -10.36776236 -0.09139066 0 0 Z " fill="#0C0B0B" transform="translate(190,10)"/>
<path d="M0 0 C3.46941546 0.45822468 6.67395049 0.89131683 10 2 C12.61539582 2.09697215 15.1979083 2.13922262 17.8125 2.125 C18.51181641 2.12886719 19.21113281 2.13273438 19.93164062 2.13671875 C24.05965562 2.12899562 27.95127695 1.80084632 32 1 C31.01 2.485 31.01 2.485 30 4 C27.55737305 4.37231445 27.55737305 4.37231445 24.51171875 4.36328125 C22.86333008 4.36231445 22.86333008 4.36231445 21.18164062 4.36132812 C20.02857422 4.34521484 18.87550781 4.32910156 17.6875 4.3125 C15.97530273 4.31733398 15.97530273 4.31733398 14.22851562 4.32226562 C8.95844105 4.28838437 4.84994434 4.23198515 0 2 C0 1.34 0 0.68 0 0 Z " fill="#C8A41F" transform="translate(176,197)"/>
<path d="M0 0 C-5.625 2 -5.625 2 -9 2 C-9.33 2.66 -9.66 3.32 -10 4 C-10 3.34 -10 2.68 -10 2 C-12.31 2 -14.62 2 -17 2 C-17.33 2.99 -17.66 3.98 -18 5 C-18.66 5 -19.32 5 -20 5 C-20.33 4.01 -20.66 3.02 -21 2 C-21.66 1.34 -22.32 0.68 -23 0 C-19.72966072 -0.19689005 -16.45872059 -0.38089008 -13.1875 -0.5625 C-12.25873047 -0.61857422 -11.32996094 -0.67464844 -10.37304688 -0.73242188 C-9.48037109 -0.78076172 -8.58769531 -0.82910156 -7.66796875 -0.87890625 C-6.84578857 -0.9260376 -6.0236084 -0.97316895 -5.17651367 -1.02172852 C-3 -1 -3 -1 0 0 Z " fill="#F7C613" transform="translate(209,201)"/>
<path d="M0 0 C0.66 0 1.32 0 2 0 C1.67 1.32 1.34 2.64 1 4 C1.99 4.33 2.98 4.66 4 5 C1.92167383 6.48666395 -0.16212086 7.96436044 -2.25 9.4375 C-3.12978516 10.06881836 -3.12978516 10.06881836 -4.02734375 10.71289062 C-9.44253178 14.51569121 -9.44253178 14.51569121 -13 15 C-13 14.34 -13 13.68 -13 13 C-12.01 13 -11.02 13 -10 13 C-10 12.01 -10 11.02 -10 10 C-9.030625 9.731875 -8.06125 9.46375 -7.0625 9.1875 C-6.051875 8.795625 -5.04125 8.40375 -4 8 C-3.67 7.01 -3.34 6.02 -3 5 C-2.01 5 -1.02 5 0 5 C0 3.35 0 1.7 0 0 Z " fill="#E9A422" transform="translate(276,312)"/>
<path d="M0 0 C5.75 1.875 5.75 1.875 8 3 C8 3.66 8 4.32 8 5 C9.65 5.33 11.3 5.66 13 6 C13.33 6.99 13.66 7.98 14 9 C14.78375 9.144375 15.5675 9.28875 16.375 9.4375 C19 10 19 10 21 11 C21 11.66 21 12.32 21 13 C15.94815536 11.57213608 12.0226845 9.35365457 7.6875 6.5 C7.05521484 6.09652344 6.42292969 5.69304687 5.77148438 5.27734375 C1.13193824 2.26387649 1.13193824 2.26387649 0 0 Z " fill="#ECA024" transform="translate(83,318)"/>
<path d="M0 0 C0.99 0.33 1.98 0.66 3 1 C3 1.66 3 2.32 3 3 C1.21895282 4.60178593 -0.62537278 6.13381926 -2.5 7.625 C-3.5209375 8.44226563 -4.541875 9.25953125 -5.59375 10.1015625 C-6.3878125 10.72804688 -7.181875 11.35453125 -8 12 C-8.66 11.67 -9.32 11.34 -10 11 C-9.34 9.35 -8.68 7.7 -8 6 C-7.34 6 -6.68 6 -6 6 C-5.67 5.34 -5.34 4.68 -5 4 C-4.34 4.33 -3.68 4.66 -3 5 C-3 4.34 -3 3.68 -3 3 C-2.34 3 -1.68 3 -1 3 C-0.67 2.01 -0.34 1.02 0 0 Z " fill="#F4A41F" transform="translate(290,304)"/>
<path d="M0 0 C0.99 0.495 0.99 0.495 2 1 C2.37890625 2.8125 2.37890625 2.8125 2.5625 5 C2.62665408 7.78932058 2.62665408 7.78932058 4 10 C4.14115161 12.67058851 4.04247107 15.32432238 4 18 C4.99 18.33 5.98 18.66 7 19 C7 21.97 7 24.94 7 28 C1.68433165 20.02649747 0.38432891 9.41605819 0 0 Z " fill="#F3C122" transform="translate(13,206)"/>
<path d="M0 0 C0.33 0.66 0.66 1.32 1 2 C-6.26 2 -13.52 2 -21 2 C-21 1.67 -21 1.34 -21 1 C-13.93642632 -0.85399656 -7.21035006 -1.62265591 0 0 Z " fill="#EE991E" transform="translate(197,347)"/>
<path d="M0 0 C0.721875 0.70125 1.44375 1.4025 2.1875 2.125 C2.65671875 2.57617188 3.1259375 3.02734375 3.609375 3.4921875 C5 5 5 5 6.9375 8.25 C8.96328293 10.8318802 10.10233916 11.01795015 13.4296875 11.6015625 C16.9615708 11.85028668 20.45989833 11.99041921 24 12 C24 12.33 24 12.66 24 13 C21.39521117 13.0809313 18.79293347 13.14045434 16.1875 13.1875 C15.08051758 13.22520508 15.08051758 13.22520508 13.95117188 13.26367188 C8.47457665 13.3380148 8.47457665 13.3380148 6.0859375 11.63671875 C3.59002244 7.87488994 1.57619509 4.24360217 0 0 Z " fill="#D2AC22" transform="translate(32,192)"/>
<path d="M0 0 C0.87462891 0.05220703 1.74925781 0.10441406 2.65039062 0.15820312 C4.78814632 0.2867021 6.92538669 0.42372641 9.0625 0.5625 C9.0625 0.8925 9.0625 1.2225 9.0625 1.5625 C0.03996114 2.40180594 -8.8776941 2.68474626 -17.9375 2.5625 C-17.6075 1.9025 -17.2775 1.2425 -16.9375 0.5625 C-11.2436863 -0.70027143 -5.78651505 -0.38283408 0 0 Z " fill="#F4C71A" transform="translate(176.9375,211.4375)"/>
<path d="M0 0 C1.32 0.33 2.64 0.66 4 1 C-3.00916259 5.40575934 -11.85197583 6.19725198 -20 6 C-20 5.34 -20 4.68 -20 4 C-13.3487487 3.10463925 -6.69007182 2.52405563 0 2 C0 1.34 0 0.68 0 0 Z " fill="#2C1A01" transform="translate(154,193)"/>
<path d="M0 0 C1.67542976 0.28604898 3.34385343 0.61781233 5 1 C5 1.33 5 1.66 5 2 C4.33613281 2.19335938 3.67226563 2.38671875 2.98828125 2.5859375 C1.66376953 2.97652344 1.66376953 2.97652344 0.3125 3.375 C-1.06035156 3.77912109 -1.06035156 3.77912109 -2.4609375 4.19140625 C-5.0904371 4.96915528 -5.0904371 4.96915528 -7.8125 6.3125 C-10.78989282 7.24825203 -12.29395217 6.39168174 -15 5 C-15 4.34 -15 3.68 -15 3 C-14.34 3 -13.68 3 -13 3 C-13 3.66 -13 4.32 -13 5 C-11.01964979 4.35780498 -9.04074744 3.71114356 -7.0625 3.0625 C-5.96035156 2.70285156 -4.85820312 2.34320313 -3.72265625 1.97265625 C-1.11876525 1.26143332 -1.11876525 1.26143332 0 0 Z " fill="#291A02" transform="translate(24,188)"/>
<path d="M0 0 C2.93804996 -0.08086376 5.87388075 -0.1404283 8.8125 -0.1875 C9.64587891 -0.21263672 10.47925781 -0.23777344 11.33789062 -0.26367188 C12.54155273 -0.27817383 12.54155273 -0.27817383 13.76953125 -0.29296875 C14.87711792 -0.31653442 14.87711792 -0.31653442 16.00708008 -0.34057617 C18.52230522 0.08925833 19.39441516 1.07463062 21 3 C13.83437211 3.28100502 7.05453001 2.20443195 0 1 C0 0.67 0 0.34 0 0 Z " fill="#432809" transform="translate(189,271)"/>
<path d="M0 0 C0 1.65 0 3.3 0 5 C-1.258125 5.268125 -2.51625 5.53625 -3.8125 5.8125 C-6.99448801 6.59532537 -9.00244311 7.25335928 -11 10 C-11.99 9.67 -12.98 9.34 -14 9 C-12.37680325 7.68527053 -10.751385 6.37328338 -9.125 5.0625 C-8.22007812 4.33160156 -7.31515625 3.60070312 -6.3828125 2.84765625 C-2.71035941 0 -2.71035941 0 0 0 Z " fill="#32210A" transform="translate(144,223)"/>
<path d="M0 0 C2.1875 1.25 2.1875 1.25 4 3 C4 3.99 4 4.98 4 6 C4.66 6 5.32 6 6 6 C6 7.65 6 9.3 6 11 C2.01930733 8.12505529 -0.43571997 5.17882671 -3 1 C-2.01 0.67 -1.02 0.34 0 0 Z " fill="#F3AC18" transform="translate(47,280)"/>
<path d="M0 0 C1.5625 1.1875 1.5625 1.1875 3 3 C2.6875 5.6875 2.6875 5.6875 2 8 C-2.99275057 6.72278474 -5.57611908 4.82669043 -9 1 C-6.61435923 1.57584432 -4.33317216 2.22227595 -2 3 C-1.34 2.01 -0.68 1.02 0 0 Z " fill="#EFBD19" transform="translate(218,216)"/>
<path d="M0 0 C0.66 0 1.32 0 2 0 C1.42473475 3.85870232 -0.35772398 5.89498568 -2.9375 8.75 C-3.64777344 9.54921875 -4.35804687 10.3484375 -5.08984375 11.171875 C-7 13 -7 13 -9 13 C-8.66695423 9.89157277 -8.10589629 9.08638908 -5.625 7.0625 C-4.75875 6.381875 -3.8925 5.70125 -3 5 C-1.98343919 3.34338239 -0.97934924 1.67888441 0 0 Z " fill="#EEBD28" transform="translate(131,227)"/>
<path d="M0 0 C0.55171875 0.14308594 1.1034375 0.28617188 1.671875 0.43359375 C4.18714769 1.0455309 6.71042508 1.56126811 9.25 2.0625 C10.14203125 2.23910156 11.0340625 2.41570312 11.953125 2.59765625 C12.62859375 2.73042969 13.3040625 2.86320313 14 3 C14 3.66 14 4.32 14 5 C15.65 5 17.3 5 19 5 C19 5.33 19 5.66 19 6 C12.26151455 6.49914707 6.9901356 5.19940966 1 2 C0.67 1.34 0.34 0.68 0 0 Z " fill="#443004" transform="translate(291,202)"/>
<path d="M0 0 C-2.52956528 3.0916909 -5.22454612 3.90931332 -9 5 C-9 6.32 -9 7.64 -9 9 C-9.99 9.495 -9.99 9.495 -11 10 C-11.125 7.125 -11.125 7.125 -11 4 C-10.34 3.34 -9.68 2.68 -9 2 C-8.01 2 -7.02 2 -6 2 C-6 1.34 -6 0.68 -6 0 C-2.25 -1.125 -2.25 -1.125 0 0 Z " fill="#F9CB08" transform="translate(24,194)"/>
<path d="M0 0 C2.81169728 1.3179831 3.61334879 3.23353014 5 5.9375 C4.34 5.9375 3.68 5.9375 3 5.9375 C2.34 4.9475 1.68 3.9575 1 2.9375 C-0.32 2.9375 -1.64 2.9375 -3 2.9375 C-3.33 3.9275 -3.66 4.9175 -4 5.9375 C-5.98 6.2675 -7.96 6.5975 -10 6.9375 C-3.14924182 -0.09841381 -3.14924182 -0.09841381 0 0 Z " fill="#D4B32D" transform="translate(281,193.0625)"/>
<path d="M0 0 C0.33 0 0.66 0 1 0 C1.19441368 2.2910905 1.38033135 4.58290337 1.5625 6.875 C1.66691406 8.15117187 1.77132813 9.42734375 1.87890625 10.7421875 C2 14 2 14 1 16 C0.34 16 -0.32 16 -1 16 C-1.02685095 13.52076199 -1.04676547 11.0418116 -1.0625 8.5625 C-1.07506836 7.50192383 -1.07506836 7.50192383 -1.08789062 6.41992188 C-1.09653588 4.61306441 -1.05220011 2.80612397 -1 1 C-0.67 0.67 -0.34 0.34 0 0 Z " fill="#0B0A0A" transform="translate(11,172)"/>
<path d="M0 0 C1.43836751 0.11458693 2.87570966 0.24209116 4.3125 0.375 C5.51326172 0.47941406 5.51326172 0.47941406 6.73828125 0.5859375 C9 1 9 1 12 3 C14.0492094 3.45139459 14.0492094 3.45139459 16.1875 3.625 C17.445625 3.74875 18.70375 3.8725 20 4 C20 4.33 20 4.66 20 5 C12.45709983 5.4946164 6.941085 3.90617391 0 1 C0 0.67 0 0.34 0 0 Z " fill="#513A07" transform="translate(105,197)"/>
<path d="M0 0 C2.31 0.33 4.62 0.66 7 1 C3.63263969 3.82858266 0.12548042 5.4998253 -4 7 C-4.99 6.67 -5.98 6.34 -7 6 C-5.68 5.67 -4.36 5.34 -3 5 C-3 4.34 -3 3.68 -3 3 C-2.01 2.67 -1.02 2.34 0 2 C0 1.34 0 0.68 0 0 Z " fill="#F29C1B" transform="translate(249,330)"/>
<path d="M0 0 C0.66 0 1.32 0 2 0 C1.25 2.4375 1.25 2.4375 0 5 C-3.50115191 6.8154121 -7.25950251 5.6473938 -11 5 C-11 4.34 -11 3.68 -11 3 C-10.28972656 2.95101562 -9.57945312 2.90203125 -8.84765625 2.8515625 C-7.46900391 2.73941406 -7.46900391 2.73941406 -6.0625 2.625 C-5.14597656 2.55539063 -4.22945313 2.48578125 -3.28515625 2.4140625 C-2.15400391 2.20910156 -2.15400391 2.20910156 -1 2 C-0.67 1.34 -0.34 0.68 0 0 Z " fill="#F1C619" transform="translate(271,200)"/>
<path d="M0 0 C4.38889325 0.66498383 7.9811485 2.18757677 12 4 C9 6 9 6 6.95703125 5.7578125 C4.97135417 5.171875 2.98567708 4.5859375 1 4 C0.67 2.68 0.34 1.36 0 0 Z " fill="#312108" transform="translate(202,217)"/>
<path d="M0 0 C0.33 0.99 0.66 1.98 1 3 C-0.299375 2.95875 -1.59875 2.9175 -2.9375 2.875 C-7.83591302 2.85944948 -12.28176811 3.7507282 -17 5 C-17 4.34 -17 3.68 -17 3 C-11.17521449 -0.03901852 -6.51791392 -0.3540919 0 0 Z " fill="#2A1A00" transform="translate(100,192)"/>
<path d="M0 0 C7.81636537 1.91722169 7.81636537 1.91722169 10 5 C10 5.66 10 6.32 10 7 C10.66 7.33 11.32 7.66 12 8 C8.21516391 8 7.22592069 6.89417485 4.3125 4.5625 C3.50425781 3.92441406 2.69601563 3.28632813 1.86328125 2.62890625 C1.24839844 2.09136719 0.63351563 1.55382812 0 1 C0 0.67 0 0.34 0 0 Z " fill="#E2B82B" transform="translate(220,224)"/>
<path d="M0 0 C-5.12325529 2.45489316 -9.33895411 3.50341703 -15 4 C-12.63613154 0.74968087 -9.74303696 0.17741981 -6.03515625 -0.765625 C-3.76732882 -1.02679515 -2.16439531 -0.67788667 0 0 Z " fill="#E0BB27" transform="translate(222,196)"/>
<path d="M0 0 C2.31 0 4.62 0 7 0 C7 0.66 7 1.32 7 2 C6.360625 2.165 5.72125 2.33 5.0625 2.5 C2.83880759 3.781786 2.83880759 3.781786 2.51171875 5.9140625 C2.2724022 7.93575155 2.13106972 9.96841939 2 12 C1.67 12 1.34 12 1 12 C0.67 8.04 0.34 4.08 0 0 Z " fill="#D3B62E" transform="translate(11,194)"/>
<path d="M0 0 C1.95825873 -0.02694851 3.91662226 -0.04637218 5.875 -0.0625 C6.96554688 -0.07410156 8.05609375 -0.08570313 9.1796875 -0.09765625 C12 0 12 0 14 1 C14 1.66 14 2.32 14 3 C15.65 3.33 17.3 3.66 19 4 C17.375 4.6875 17.375 4.6875 15 5 C13.6696875 4.319375 13.6696875 4.319375 12.3125 3.625 C8.19866793 1.6068937 4.52182226 1.29140632 0 1 C0 0.67 0 0.34 0 0 Z " fill="#392702" transform="translate(159,192)"/>
<path d="M0 0 C0.33 0.99 0.66 1.98 1 3 C-0.75 5.375 -0.75 5.375 -3 8 C-3.53625 8.928125 -4.0725 9.85625 -4.625 10.8125 C-5.07875 11.534375 -5.5325 12.25625 -6 13 C-6.66 13 -7.32 13 -8 13 C-6.40956621 7.91061189 -3.2553049 4.12543357 0 0 Z " fill="#3D2703" transform="translate(129,233)"/>
<path d="M0 0 C2.64 0 5.28 0 8 0 C7.67 0.99 7.34 1.98 7 3 C4.36 3.33 1.72 3.66 -1 4 C-0.67 2.68 -0.34 1.36 0 0 Z " fill="#FBC70D" transform="translate(73,201)"/>
<path d="M0 0 C0.66 0.33 1.32 0.66 2 1 C2 1.66 2 2.32 2 3 C0.68 3 -0.64 3 -2 3 C-2.33 3.99 -2.66 4.98 -3 6 C-5.64 6 -8.28 6 -11 6 C-8 4 -8 4 -4 4 C-4 3.34 -4 2.68 -4 2 C-2.125 0.9375 -2.125 0.9375 0 0 Z " fill="#F69814" transform="translate(228,338)"/>
<path d="M0 0 C0.66 0.33 1.32 0.66 2 1 C1.01 1.33 0.02 1.66 -1 2 C-1 2.66 -1 3.32 -1 4 C-3.30368736 5.06652192 -5.64018187 6.06421005 -8 7 C-8.66 6.67 -9.32 6.34 -10 6 C-8.89932004 5.18278283 -7.79430269 4.37140549 -6.6875 3.5625 C-6.07261719 3.11003906 -5.45773437 2.65757812 -4.82421875 2.19140625 C-3 1 -3 1 0 0 Z " fill="#D1AF26" transform="translate(325,199)"/>
<path d="M0 0 C1.42020201 0.22906484 2.83845901 0.47251758 4.25 0.75 C-0.01835595 3.01785219 -3.91029413 3.75 -8.75 3.75 C-6.12072175 -0.02244271 -4.38091087 -0.51743042 0 0 Z " fill="#F6C810" transform="translate(331.75,199.25)"/>
<path d="M0 0 C1.62723299 0.45034123 3.25173664 0.91055354 4.875 1.375 C5.77992188 1.63023437 6.68484375 1.88546875 7.6171875 2.1484375 C10 3 10 3 12 5 C4.15 5.30192308 4.15 5.30192308 1 3 C0.67 2.01 0.34 1.02 0 0 Z " fill="#EDC21A" transform="translate(235,194)"/>
<path d="M0 0 C0.66 0 1.32 0 2 0 C1.67 1.32 1.34 2.64 1 4 C1.99 4.33 2.98 4.66 4 5 C2.25 6.5625 2.25 6.5625 0 8 C-2.25 7.6875 -2.25 7.6875 -4 7 C-3.67 6.34 -3.34 5.68 -3 5 C-2.01 5 -1.02 5 0 5 C0 3.35 0 1.7 0 0 Z " fill="#F3A210" transform="translate(276,312)"/>
<path d="M0 0 C0.33 0 0.66 0 1 0 C0.67 3.96 0.34 7.92 0 12 C-0.33 12 -0.66 12 -1 12 C-1 10.02 -1 8.04 -1 6 C-3.31 6 -5.62 6 -8 6 C-7.67 5.34 -7.34 4.68 -7 4 C-5.35 4 -3.7 4 -2 4 C-1.34 2.68 -0.68 1.36 0 0 Z " fill="#C9AA3C" transform="translate(347,199)"/>
<path d="M0 0 C0.66 0 1.32 0 2 0 C2 0.66 2 1.32 2 2 C2.66 2 3.32 2 4 2 C4.99 5.3 5.98 8.6 7 12 C3.74190431 8.74190431 2.13405085 6.04733782 0 2 C0 1.34 0 0.68 0 0 Z " fill="#EFB02B" transform="translate(29,256)"/>
<path d="M0 0 C3.01305957 0.38878188 4.39685311 1.26456874 7 3 C7 3.66 7 4.32 7 5 C4.03 4.01 1.06 3.02 -2 2 C-1.34 1.34 -0.68 0.68 0 0 Z " fill="#F29D17" transform="translate(106,330)"/>
<path d="M0 0 C0.99 0.66 1.98 1.32 3 2 C1.90241493 2.84198307 0.79664683 3.67330671 -0.3125 4.5 C-0.92738281 4.9640625 -1.54226563 5.428125 -2.17578125 5.90625 C-4 7 -4 7 -7 7 C-7 6.34 -7 5.68 -7 5 C-6.030625 4.54625 -5.06125 4.0925 -4.0625 3.625 C-0.92920418 2.34213779 -0.92920418 2.34213779 0 0 Z " fill="#281600" transform="translate(317,200)"/>
<path d="M0 0 C0.4125 0.474375 0.825 0.94875 1.25 1.4375 C2.89078817 3.15276627 2.89078817 3.15276627 5.125 3.5 C5.74375 3.665 6.3625 3.83 7 4 C7.33 4.99 7.66 5.98 8 7 C3.56909529 5.79157144 1.01887244 4.48331435 -2 1 C-1.34 0.67 -0.68 0.34 0 0 Z " fill="#382503" transform="translate(239,191)"/>
<path d="M0 0 C0.33 0 0.66 0 1 0 C1.36923077 4.55384615 1.36923077 4.55384615 -0.5 6.8125 C-0.995 7.204375 -1.49 7.59625 -2 8 C-2.66 7.67 -3.32 7.34 -4 7 C-3.34 5.35 -2.68 3.7 -2 2 C-1.34 2 -0.68 2 0 2 C0 1.34 0 0.68 0 0 Z " fill="#F5A110" transform="translate(284,308)"/>
<path d="M0 0 C3.3 0.33 6.6 0.66 10 1 C10 1.33 10 1.66 10 2 C6.04 2.66 2.08 3.32 -2 4 C-1.34 2.68 -0.68 1.36 0 0 Z " fill="#2F1F01" transform="translate(325,196)"/>
<path d="M0 0 C-3.69172595 3.53790403 -7.09390595 3.59115883 -12 4 C-12 3.34 -12 2.68 -12 2 C-7.82262526 0.40861915 -4.46839215 -0.21278058 0 0 Z " fill="#0A0A0A" transform="translate(136,17)"/>
<path d="M0 0 C0 0.99 0 1.98 0 3 C0.33 3.66 0.66 4.32 1 5 C-2.65316671 3.75023244 -3.78065836 3.32901247 -6 0 C-3.50907189 -1.24546405 -2.58919267 -0.7767578 0 0 Z " fill="#ECA11D" transform="translate(82,313)"/>
<path d="M0 0 C0 3.58534593 -1.02362045 5.07495826 -3 8 C-3.33 8 -3.66 8 -4 8 C-3.67 5.69 -3.34 3.38 -3 1 C-2.01 0.67 -1.02 0.34 0 0 Z " fill="#F6B61F" transform="translate(325,265)"/>
<path d="M0 0 C1.22589844 0.01353516 1.22589844 0.01353516 2.4765625 0.02734375 C3.41628906 0.04474609 3.41628906 0.04474609 4.375 0.0625 C0.93049263 2.35883824 -1.56312283 2.60266485 -5.625 3.0625 C-5.955 2.4025 -6.285 1.7425 -6.625 1.0625 C-4.21954362 -0.14022819 -2.67503047 -0.03821472 0 0 Z " fill="#F7C30A" transform="translate(149.625,215.9375)"/>
<path d="M0 0 C3.91211733 1.15585285 6.8745041 2.35534962 10 5 C9.01 5.33 8.02 5.66 7 6 C7 5.34 7 4.68 7 4 C5.824375 3.7834375 5.824375 3.7834375 4.625 3.5625 C2 3 2 3 0 2 C0 1.34 0 0.68 0 0 Z " fill="#E2BB28" transform="translate(99,195)"/>
<path d="M0 0 C1.65 0.33 3.3 0.66 5 1 C5.33 1.99 5.66 2.98 6 4 C5.401875 3.835 4.80375 3.67 4.1875 3.5 C1.88655664 2.8885876 1.88655664 2.8885876 -1 3 C-0.67 2.01 -0.34 1.02 0 0 Z " fill="#F9CA0D" transform="translate(278,195)"/>
<path d="M0 0 C2.97 0.495 2.97 0.495 6 1 C6.33 2.65 6.66 4.3 7 6 C3.63279613 4.60667426 2.0140476 3.0210714 0 0 Z " fill="#F2A322" transform="translate(69,307)"/>
<path d="M0 0 C2.125 0.375 2.125 0.375 4 1 C2.35 2.65 0.7 4.3 -1 6 C-1.625 4.125 -1.625 4.125 -2 2 C-1.34 1.34 -0.68 0.68 0 0 Z " fill="#F3B01C" transform="translate(317,274)"/>
<path d="M0 0 C0 0.66 0 1.32 0 2 C-1.96147874 3.38938077 -3.96166576 4.7260411 -6 6 C-6 4.35 -6 2.7 -6 1 C-3 0 -3 0 0 0 Z " fill="#E2B626" transform="translate(139,224)"/>
<path d="M0 0 C-3.20380017 2.13586678 -4.01939967 2.23132175 -7.6875 2.125 C-8.89986328 2.09792969 -8.89986328 2.09792969 -10.13671875 2.0703125 C-11.05904297 2.03550781 -11.05904297 2.03550781 -12 2 C-8.63758153 -1.36241847 -4.39594827 -1.5216744 0 0 Z " fill="#F7CA14" transform="translate(232,195)"/>
<path d="M0 0 C0.66 0.33 1.32 0.66 2 1 C2 1.66 2 2.32 2 3 C3.32 3.33 4.64 3.66 6 4 C3.03 3.67 0.06 3.34 -3 3 C-3 2.34 -3 1.68 -3 1 C-2.01 0.67 -1.02 0.34 0 0 Z " fill="#EF991D" transform="translate(143,342)"/>
<path d="" fill="#FFFFFF" transform="translate(0,0)"/>
<path d="" fill="#FFFFFF" transform="translate(0,0)"/>
<path d="" fill="#FFFFFF" transform="translate(0,0)"/>
<path d="" fill="#FFFFFF" transform="translate(0,0)"/>
<path d="" fill="#FFFFFF" transform="translate(0,0)"/>
<path d="" fill="#FFFFFF" transform="translate(0,0)"/>
<path d="" fill="#FFFFFF" transform="translate(0,0)"/>
<path d="" fill="#FFFFFF" transform="translate(0,0)"/>
<path d="" fill="#FFFFFF" transform="translate(0,0)"/>
<path d="" fill="#FFFFFF" transform="translate(0,0)"/>
<path d="" fill="#FFFFFF" transform="translate(0,0)"/>
<path d="" fill="#FFFFFF" transform="translate(0,0)"/>
<path d="" fill="#FFFFFF" transform="translate(0,0)"/>
<path d="" fill="#FFFFFF" transform="translate(0,0)"/>
<path d="" fill="#FFFFFF" transform="translate(0,0)"/>
<path d="" fill="#FFFFFF" transform="translate(0,0)"/>
<path d="" fill="#FFFFFF" transform="translate(0,0)"/>
<path d="" fill="#FFFFFF" transform="translate(0,0)"/>
<path d="" fill="#FFFFFF" transform="translate(0,0)"/>
<path d="" fill="#FFFFFF" transform="translate(0,0)"/>
</svg>
